{
    "accessors" : [
        {
            "bufferView" : 0,
            "componentType" : 5126,
            "count" : 10416,
            "max" : [
                0.7203255295753479,
                1.297991156578064,
                1.9444581270217896
            ],
            "min" : [
                -0.8181073665618896,
                -1.4394876956939697,
                -1.4925105571746826
            ],
            "type" : "VEC3"
        },
        {
            "bufferView" : 1,
            "componentType" : 5126,
            "count" : 10416,
            "type" : "VEC3"
        },
        {
            "bufferView" : 2,
            "componentType" : 5126,
            "count" : 10416,
            "type" : "VEC4"
        },
        {
            "bufferView" : 3,
            "componentType" : 5126,
            "count" : 10416,
            "type" : "VEC2"
        },
        {
            "bufferView" : 4,
            "componentType" : 5123,
            "count" : 61146,
            "type" : "SCALAR"
        }
    ],
    "asset" : {
        "generator" : "Khronos Blender glTF 2.0 I/O",
        "version" : "2.0"
    },
    "bufferViews" : [
        {
            "buffer" : 0,
            "byteLength" : 124992,
            "byteOffset" : 0
        },
        {
            "buffer" : 0,
            "byteLength" : 124992,
            "byteOffset" : 124992
        },
        {
            "buffer" : 0,
            "byteLength" : 166656,
            "byteOffset" : 249984
        },
        {
            "buffer" : 0,
            "byteLength" : 83328,
            "byteOffset" : 416640
        },
        {
            "buffer" : 0,
            "byteLength" : 122292,
            "byteOffset" : 499968
        }
    ],
    "buffers" : [
        {
            "byteLength" : 622260,
            "uri" : "rock.bin"
        }
    ],
    "extensions" : {},
    "images" : [
        {
            "mimeType" : "image/png",
            "name" : "rock-mat_normal.bmp",
            "uri" : "rock-mat_normal.png"
        },
        {
            "mimeType" : "image/png",
            "name" : "rock-mat_diffuseOriginal.bmp",
            "uri" : "rock-mat_diffuseOriginal.png"
        },
        {
            "mimeType" : "image/png",
            "name" : "rock-mat_orm.png",
            "uri" : "rock-mat_ormrock-mat_orm.png"
        }
    ],
    "materials" : [
        {
            "name" : "Rock_9",
            "normalTexture" : {
                "index" : 0,
                "texCoord" : 0
            },
            "pbrMetallicRoughness" : {
                "baseColorFactor" : [
                    0.800000011920929,
                    0.800000011920929,
                    0.800000011920929,
                    1
                ],
                "baseColorTexture" : {
                    "index" : 1,
                    "texCoord" : 0
                },
                "metallicFactor" : 0,
                "metallicRoughnessTexture" : {
                    "index" : 2,
                    "texCoord" : 0
                },
                "roughnessFactor" : 0.5
            }
        }
    ],
    "meshes" : [
        {
            "name" : "Rock_9",
            "primitives" : [
                {
                    "attributes" : {
                        "NORMAL" : 1,
                        "POSITION" : 0,
                        "TANGENT" : 2,
                        "TEXCOORD_0" : 3
                    },
                    "indices" : 4,
                    "material" : 0
                }
            ]
        }
    ],
    "nodes" : [
        {
            "mesh" : 0,
            "name" : "Rock_9",
            "rotation" : [
                0.7071068286895752,
                0,
                0,
                0.7071067094802856
            ]
        }
    ],
    "scene" : 0,
    "scenes" : [
        {
            "name" : "Scene",
            "nodes" : [
                0
            ]
        }
    ],
    "textures" : [
        {
            "source" : 0
        },
        {
            "source" : 1
        },
        {
            "source" : 2
        }
    ]
}
